<svg width="101" height="96" viewBox="0 0 101 96" fill="none" xmlns="http://www.w3.org/2000/svg">
<path d="M20.8377 101.185L23.7922 96.2038L26.3247 94.9045H32.0227H41.0974L46.3734 93.6051L51.2273 94.2548H54.3929L59.8799 96.8535L64.9448 101.185L66.6331 104L70.4318 98.586L74.2305 96.2038L79.0844 93.6051C80.4913 93.6051 83.5162 93.6051 84.3604 93.6051M84.3604 93.6051C85.2045 93.6051 87.8074 93.6051 89.0032 93.6051M84.3604 93.6051L89.0032 89.0573M84.3604 93.6051L86.2597 91.0064L89.0032 85.5924C89.4957 83.2102 90.5649 78.3592 90.9026 78.0127C91.2403 77.6662 91.0433 73.9703 90.9026 72.1656M89.0032 93.6051C89.4253 93.8217 90.4805 94.2548 91.3247 94.2548C92.1688 94.2548 97.4448 94.2548 99.9773 94.2548C101.384 94.2548 104.409 94.2548 105.253 94.2548C106.097 94.2548 108.982 95.5541 110.318 96.2038L113.695 99.6688L115.172 101.185M89.0032 93.6051L89.8474 92.5223C94.9827 92.2335 105.464 91.6561 106.308 91.6561C107.153 91.6561 117.634 86.7473 122.769 84.293L126.146 85.5924L129.945 84.293L131 80.1783L130.367 77.3631L128.045 75.6306L124.669 76.0637L121.714 78.6624V83.4268C117.142 85.3036 107.912 89.0573 107.575 89.0573C107.153 89.0573 103.776 90.3567 101.877 90.3567C100.357 90.3567 94.2089 90.7898 91.3247 91.0064L89.0032 90.3567L104.198 82.1274C106.449 76.7134 111.036 65.6688 111.373 64.8025C111.711 63.9363 118.408 61.2654 121.714 60.0382C122.277 60.5435 123.487 61.5975 123.825 61.7707C124.162 61.9439 126.639 61.2654 127.834 60.9045L130.367 55.9236L128.679 52.6752L124.669 52.0255L121.714 54.8408L120.448 58.7389L119.393 59.3885L110.318 62.8535L108.841 66.7516L101.877 82.1274L89.0032 89.0573M46.3734 92.9554C45.7403 93.172 42.1526 92.9554 41.0974 92.9554C40.2532 92.9554 35.118 92.5223 32.6558 92.3057L25.2695 91.0064L18.3052 88.4076L14.5065 86.6752L9.44156 83.8599L7.96429 84.9427L4.58766 85.8089L2.05519 83.8599L1 81.2611V78.4459L4.58766 76.2803H7.96429L10.0747 78.4459V81.2611V82.1274L12.1851 83.8599H13.8734L17.8831 86.6752L23.7922 88.4076L26.3247 89.707C30.4048 90.1401 38.6916 91.0064 39.1981 91.0064C39.7045 91.0064 41.8009 91.0064 42.7857 91.0064C41.8712 90.2845 39.9578 88.7975 39.6201 88.6242C39.1981 88.4076 32.2338 84.5096 31.6006 84.5096C31.0942 84.5096 29.1385 82.9214 28.224 82.1274L26.7468 78.0127L24.4253 71.7325L22.3149 65.0191L10.7078 59.8217L7.96429 61.121H3.95455L2.05519 57.4395V53.5414L4.58766 52.0255H7.96429L10.0747 53.5414L10.9188 57.0064L10.7078 58.5223L13.8734 59.8217L18.3052 61.7707L21.6818 63.0701L23.1591 63.7197L25.2695 68.9172L28.224 77.1465L30.3344 82.1274L39.1981 86.6752L42.7857 88.6242H43.2078L39.6201 81.2611L37.9318 79.3121L35.3994 76.2803V57.4395C34.3442 56.5011 32.1071 54.6242 31.6006 54.6242C30.9675 54.6242 22.3149 49.2102 22.3149 48.7771C22.3149 48.4306 20.6266 47.3333 19.7825 46.828L15.3506 48.1274L12.1851 46.828L10.9188 41.6306L12.1851 40.3312L13.8734 39.0318L16.8279 38.5987L19.7825 40.3312V42.7134L20.2045 45.9618L34.7662 54.6242L35.3994 42.7134L37.0877 34.051L24.6364 23.4395L21.6818 24.7389L18.3052 24.3057L16.1948 20.8408L17.25 16.7261C18.0238 16.2208 19.6981 15.2102 20.2045 15.2102C20.8377 15.2102 23.1591 15.4268 23.5812 15.6433C23.9188 15.8166 25.2695 17.0149 25.9026 17.5924L25.2695 21.9236L29.4903 25.3885L34.7662 29.9363L38.776 32.7516L38.1429 41.1975L37.0877 50.7261V55.9236L37.9318 61.121L37.0877 74.7643L38.776 77.1465C38.3539 73.5372 37.6364 66.1885 38.1429 65.6688C38.6494 65.149 39.9015 59.6773 40.4643 57.0064L43.2078 52.8917L47.4286 45.5287C48.8355 43.5796 51.6916 39.5516 51.8604 39.0318C52.0714 38.3822 54.3929 35.3503 55.026 34.051C55.6591 32.7516 57.9805 27.9873 58.4026 27.3376C58.7403 26.8178 60.0909 22.2123 60.724 19.9745C61.9903 17.2314 64.5227 11.6153 64.5227 11.0955C64.5227 10.5758 65.0855 6.4034 65.3669 4.38217L66.4221 2M66.4221 2C67.1959 4.95966 68.7857 11.0522 68.9545 11.7452C69.1656 12.6115 70.4318 17.8089 70.8539 18.8917C71.276 19.9745 72.9643 26.0382 73.8084 27.3376C74.6526 28.6369 76.5519 33.1847 77.3961 34.051C78.0714 34.7439 80.0693 37.6603 80.9838 39.0318C82.3907 41.0531 85.289 45.2688 85.6266 45.9618C86.0487 46.828 90.4805 53.758 90.9026 55.4904C91.2403 56.8764 93.2944 62.9979 94.2792 65.8854V74.1147L93.6461 78.6624M66.4221 2L67.6883 11.7452L68.3214 17.5924L65.3669 21.2739L63.8896 25.3885C64.7338 26.5435 66.5487 29.0268 67.0552 29.7197C67.5617 30.4127 69.7987 32.6072 70.8539 33.6178L70.6429 39.0318L67.6883 42.7134L66.5276 44.121M93.4351 80.1783L90.9026 85.5924L89.0032 89.0573M93.4351 80.1783L93.6461 78.6624M93.4351 80.1783L97.2338 75.1975V56.7898L112.429 47.6943H114.328L117.705 47.4777L120.026 45.9618L120.87 42.0637L118.971 39.6815L116.86 38.1656H114.75L112.429 40.7643C112.147 42.4968 111.584 46.135 111.584 46.828C111.584 47.521 102.58 52.4586 98.0779 54.8408L97.2338 47.4777L96.8117 42.0637V36.2166V34.051L98.711 31.2357L107.364 24.7389C108.067 24.8832 109.769 25.2153 110.951 25.3885C112.133 25.5618 113.132 24.1614 113.484 23.4395C113.906 22.7176 114.75 21.1873 114.75 20.8408C114.75 20.4076 114.75 18.8917 114.75 18.242C114.75 17.5924 113.062 16.7261 112.429 16.0764C111.795 15.4268 109.896 16.0764 109.474 16.0764C109.136 16.0764 107.364 17.9533 106.519 18.8917L105.675 24.0892L97.2338 29.7197L94.2792 34.051C95.053 40.259 96.6429 52.935 96.8117 53.9745C96.9805 55.014 96.0379 55.707 95.5455 55.9236L95.9675 74.1147L93.6461 78.6624M45.1071 88.4076C44.6851 87.5414 41.7305 84.293 41.7305 83.2102C41.7305 82.1274 41.7305 81.4777 41.7305 78.6624C41.7305 75.8471 41.5195 72.1656 42.1526 71.2994C42.6591 70.6064 44.0519 66.1019 44.6851 63.9363L47.0065 61.5541M66.5276 44.121L65.3669 45.5287L64.5227 47.4777L59.6688 50.7261L53.5487 55.9236L49.3279 59.172L47.0065 61.5541M66.5276 44.121L68.5325 48.1274C69.2359 48.8493 70.8539 50.4662 71.6981 51.1592C72.5422 51.8522 74.8636 53.3248 75.9188 53.9745C76.974 54.6242 79.211 55.9236 79.7175 55.9236C80.224 55.9236 82.7424 58.0892 83.9383 59.172M83.9383 59.172L85.6266 61.7707L87.737 63.9363L89.0032 68.4841L90.9026 72.1656M83.9383 59.172V64.8025L83.0942 69.5669C82.3907 71.4437 80.8994 75.3707 80.5617 76.0637C80.224 76.7567 79.0141 80.828 78.4513 82.7771M90.9026 72.1656L89.8474 74.1147L85.2045 77.3631C83.1645 78.9512 78.9578 82.2573 78.4513 82.7771M42.1526 74.7643C43.2078 75.1975 46.7955 76.2803 47.4286 77.1465C47.9351 77.8395 50.1721 79.4565 51.2273 80.1783L54.1818 82.7771M54.1818 82.7771L57.1364 85.5924L62.2013 89.0573L64.5227 91.0064L66 92.3057L72.3312 86.6752C74.1602 85.5924 77.9448 83.2968 78.4513 82.7771M54.1818 82.7771L53.5487 81.2611L52.4935 78.6624L51.2273 75.1975L50.3831 73.0318C50.0314 72.2378 49.3279 70.5631 49.3279 70.2166C49.3279 69.8701 48.3431 68.6285 47.8506 68.051L48.4838 64.8025L47.0065 61.5541M65.789 58.7389V70.8662L69.1656 71.2994L73.1753 66.535C73.8084 67.8344 75.1169 70.5197 75.2857 70.8662C75.4545 71.2127 77.6071 70.7219 78.6623 70.4331C79.2251 66.535 80.224 58.6955 79.7175 58.5223C79.211 58.349 77.5368 58.8832 76.763 59.172L75.9188 66.7325L73.5974 63.0701H71.6981C70.8539 64.5138 69.1656 67.3147 69.1656 66.9682C69.1656 66.6217 69.1656 61.0488 69.1656 58.3057H65.789M53.1266 58.7389C53.4643 59.4318 53.2673 66.2463 53.1266 69.5669V71.2994H59.6688L62.2013 69.1338C62.9751 68.1231 64.5227 66.0153 64.5227 65.6688C64.5227 65.3223 64.2413 62.9257 64.1006 61.7707L61.3571 58.3057L57.3474 58.5223L53.1266 58.7389ZM55.8701 61.121V68.4841H58.8247L60.9351 66.9682L62.2013 64.8025C61.7792 64.2972 60.9351 63.2433 60.9351 63.0701C60.9351 62.8968 59.5281 61.4098 58.8247 60.6879L55.8701 61.121Z" stroke="white"/>
</svg>
